<?xml version="1.0" encoding="utf-8"?>
<!-- Generator: Adobe Illustrator 24.0.0, SVG Export Plug-In . SVG Version: 6.00 Build 0)  -->
<svg version="1.1" id="Capa_1" xmlns="http://www.w3.org/2000/svg" xmlns:xlink="http://www.w3.org/1999/xlink" x="0px" y="0px"
	 viewBox="0 0 512 512" style="enable-background:new 0 0 512 512;" xml:space="preserve">
<style type="text/css">
	.st0{fill:#FDCBC6;}
	.st1{fill:#FFA698;}
	.st2{fill:#FC534E;}
	.st3{fill:#FC6B55;}
</style>
<g>
	<g>
		<path class="st0" d="M481.6,177.9H334.1V30.4c0-8.6-7-15.6-15.6-15.6H193.5c-8.6,0-15.6,7-15.6,15.6v147.5H30.4
			c-8.6,0-15.6,7-15.6,15.6v124.9c0,8.6,7,15.6,15.6,15.6h147.5v147.5c0,8.6,7,15.6,15.6,15.6h124.9c8.6,0,15.6-7,15.6-15.6V334.1
			h147.5c8.6,0,15.6-7,15.6-15.6V193.5C497.2,184.9,490.2,177.9,481.6,177.9L481.6,177.9z"/>
	</g>
	<g>
		<g>
			<path class="st1" d="M481.6,177.9h-28.2v96.7c0,8.6-7,15.6-15.6,15.6h-120c-15.2,0-27.5,12.3-27.5,27.5v120
				c0,8.6-7,15.6-15.6,15.6h-96.7v28.2c0,8.6,7,15.6,15.6,15.6h124.9c8.6,0,15.6-7,15.6-15.6V334.1h147.5c8.6,0,15.6-7,15.6-15.6
				V193.5C497.2,184.9,490.2,177.9,481.6,177.9L481.6,177.9z"/>
		</g>
	</g>
	<g>
		<path class="st2" d="M214.5,297.9c-3,0-5.8-1.8-7.1-4.5l-16.9-37.2l-0.7,1.5c-1.3,2.8-4,4.5-7.1,4.5H79.1c-4.3,0-7.8-3.5-7.8-7.8
			s3.5-7.8,7.8-7.8h98.7l5.7-12.5c1.3-2.8,4-4.5,7.1-4.5s5.8,1.8,7.1,4.5l16.9,37.2l40.2-88.4c1.3-2.8,4-4.5,7.1-4.5
			s5.8,1.8,7.1,4.5l26.6,58.5l8.4-18.6c1.3-2.8,4-4.5,7.1-4.5c3,0,5.8,1.8,7.1,4.5l10.8,23.8h104.1c4.3,0,7.8,3.5,7.8,7.8
			c0,4.3-3.5,7.8-7.8,7.8h-109c-3,0-5.8-1.8-7.1-4.5l-5.8-12.8l-8.4,18.6c-1.3,2.8-4,4.5-7.1,4.5c-3,0-5.8-1.8-7.1-4.5l-26.6-58.5
			l-40.2,88.4C220.3,296.1,217.5,297.9,214.5,297.9L214.5,297.9z"/>
	</g>
	<g>
		<g>
			<path class="st3" d="M318.5,512H193.5c-16.8,0-30.4-13.7-30.4-30.4V348.9H30.4C13.7,348.9,0,335.2,0,318.5V193.5
				c0-16.8,13.7-30.4,30.4-30.4h132.7V30.4c0-16.8,13.7-30.4,30.4-30.4h124.9c16.8,0,30.4,13.7,30.4,30.4v132.7h132.7
				c16.8,0,30.4,13.7,30.4,30.4v124.9c0,16.8-13.7,30.4-30.4,30.4H348.9v132.7C348.9,498.3,335.2,512,318.5,512L318.5,512z
				 M30.4,192.7c-0.4,0-0.8,0.4-0.8,0.8v124.9c0,0.4,0.4,0.8,0.8,0.8h153.7c4.7,0,8.6,3.8,8.6,8.6v153.7c0,0.4,0.4,0.8,0.8,0.8
				h124.9c0.4,0,0.8-0.4,0.8-0.8V327.9c0-4.7,3.8-8.6,8.6-8.6h153.7c0.4,0,0.8-0.4,0.8-0.8V193.5c0-0.4-0.4-0.8-0.8-0.8H327.9
				c-4.7,0-8.6-3.8-8.6-8.6V30.4c0-0.4-0.4-0.8-0.8-0.8H193.5c-0.4,0-0.8,0.4-0.8,0.8v153.7c0,4.7-3.8,8.6-8.6,8.6H30.4z"/>
		</g>
	</g>
	<g>
		<g>
			<path class="st2" d="M493.6,165.6c1.6,3.7,2.5,7.8,2.5,12v139.9c0,8.6-6.9,15.5-15.5,15.5H333v147.6c0,8.6-6.9,15.5-15.5,15.5
				H177.6c-4.3,0-8.3-0.9-12-2.5c4.7,10.8,15.4,18.4,28,18.4h124.9c16.8,0,30.4-13.6,30.4-30.4V348.9h132.7
				c16.8,0,30.4-13.6,30.4-30.4V193.5C512,181,504.4,170.3,493.6,165.6L493.6,165.6z"/>
		</g>
	</g>
</g>
</svg>
